<svg xmlns="http://www.w3.org/2000/svg" width="131" height="132"><path fill="#0fa4aa" d="M130.819 2.865c.03.722.657 17.872-6.855 35.991l-.003.01-.02.048c-3.277 7.86-7.62 14.741-12.907 20.453-5.698 6.155-12.817 12.451-21.182 18.745 4.228 5.881 4.19 13.17-.205 20.871-.973 1.71-2.143 3.414-3.575 5.212-3.41 4.29-6.938 7.26-7.773 7.94L59.769 131.1a2.98 2.98 0 01-2.136.9 2.988 2.988 0 01-2.137-5.076c7.079-7.246 4.79-16.614 1.625-23.198h-.001l-.001-.003c-1.652-3.449-3.381-5.745-3.398-5.767a2.976 2.976 0 01-.456-.877c-1.336 2.042-3.441 4.796-6.504 7.62-6.382 5.892-14.334 9.812-23.636 11.65-.817.157-1.675.305-2.56.44a2.975 2.975 0 01-3.321-.695 2.993 2.993 0 01-.693-3.236c.512-3.97 1.396-7.755 2.63-11.26a.069.069 0 01.004-.008c.117-.33.24-.656.36-.976l.143-.38c4.379-11.328 11.569-17.622 15.766-20.51a2.988 2.988 0 01-.798-.407c-.01-.008-.022-.014-.033-.022-.604-.428-6.094-4.218-12.84-5.563-6.545-1.29-11.987.22-16.162 4.487a2.985 2.985 0 01-4.222.048 2.987 2.987 0 01-.052-4.223l.003-.003v-.002l3.15-3.224c1.13-1.155 2.183-2.23 3.158-3.233.002 0 .003-.003.004-.004l7.517-7.694c2.573-2.634 3.97-4.065 4.685-4.794l.046-.064c1.746-2.199 7.854-9.413 15.6-13.078 6.657-3.154 12.855-2.875 18.119.76 6.105-8.515 12.227-15.774 18.224-21.603 5.608-5.448 12.39-9.949 20.156-13.378a.834.834 0 01.044-.019l.01-.005c17.946-7.94 35.107-7.716 35.826-7.7a2.99 2.99 0 012.93 2.862zm-95.597 69.75a242.323 242.323 0 012.839-5.248 282.287 282.287 0 015.75-9.829 265.14 265.14 0 016.403-9.922c-3.503-2.386-7.5-2.47-12.147-.267-6.354 3.006-11.698 9.201-13.186 11.027-.018.031-.04.06-.06.09l.048.043s-.313.335-.505.516c-.042.05-.083.096-.114.126-.657.67-2.06 2.105-4.797 4.908l-3.207 3.283c2.144-.1 4.38.072 6.7.528 5.105 1.02 9.514 3.16 12.276 4.745zm7.487 27.691c3.04-2.8 4.962-5.51 5.999-7.2l-2.426-2.376-3.586 3.656a2.988 2.988 0 01-4.275-4.176l3.568-3.669-2.421-2.368c-3.228 2.095-10.208 7.614-14.294 18.181l-.137.367c-.107.284-.217.573-.321.867a47.147 47.147 0 00-1.798 6.68c7.743-1.697 14.367-5.046 19.69-9.962zm41.746-4.282c3.237-5.667 3.43-10.396.576-14.384-.107.077-.216.156-.323.231-10.35 7.352-19.745 12.804-24.32 15.345a46.338 46.338 0 012.12 3.926c2.522 5.244 3.723 10.27 3.618 14.901l8.015-8.202.02-.019.012-.014.499-.518.052.05c.885-.74 3.846-3.31 6.673-6.867 1.222-1.534 2.25-3.029 3.058-4.449zm22.196-40.717c4.39-4.745 8.073-10.405 10.968-16.84l-25.02-24.434c-6.355 3.023-11.927 6.835-16.583 11.357-6.184 6.012-12.538 13.652-18.884 22.707l-.464.67a253.957 253.957 0 00-7.762 11.897 273.94 273.94 0 00-5.626 9.614 215.571 215.571 0 00-3.87 7.252 2.982 2.982 0 012.712.785l4.073 3.98L67.714 60.25a2.988 2.988 0 014.275 4.175L50.47 86.47l4.033 3.948c.74.724 1.04 1.766.832 2.752C57.949 91.771 68.88 85.784 81.246 77c.818-.58 1.655-1.18 2.492-1.79 9.184-6.706 16.894-13.403 22.913-19.903zm13.359-22.859c3.87-11.126 4.676-21.492 4.822-26.385-4.886.261-15.23 1.31-26.268 5.443z"/><path fill="#6e2b80" d="M79.737 28.878c6.24-6.39 16.517-6.51 22.907-.268a16.078 16.078 0 014.882 11.4 16.092 16.092 0 01-4.615 11.508 16.154 16.154 0 01-11.59 4.871 16.141 16.141 0 01-11.317-4.604 16.1 16.1 0 01-4.88-11.398 16.086 16.086 0 014.613-11.51zm18.733 4.008a10.193 10.193 0 00-7.145-2.908 10.191 10.191 0 00-7.315 3.075 10.155 10.155 0 00-2.91 7.265 10.156 10.156 0 003.08 7.194c4.03 3.94 10.517 3.863 14.458-.17a10.163 10.163 0 002.913-7.264 10.138 10.138 0 00-3.081-7.193z"/></svg>