<svg xmlns="http://www.w3.org/2000/svg" width="133" height="132"><path fill="#0fa4aa" d="M66.809 131.942C30.432 131.942.838 102.348.838 65.97.838 29.594 30.432 0 66.808 0c9.185 0 18.066 1.85 26.403 5.494.797.351 1.41.987 1.726 1.797.316.806.299 1.69-.051 2.484a3.255 3.255 0 01-2.98 1.953 3.17 3.17 0 01-1.296-.279c-7.512-3.28-15.522-4.946-23.801-4.946C34.019 6.503 7.34 33.18 7.34 65.97c0 32.792 26.678 59.468 59.468 59.468 32.79 0 59.469-26.676 59.469-59.468 0-8.26-1.661-16.259-4.937-23.77a3.22 3.22 0 01-.05-2.485 3.244 3.244 0 011.723-1.795 3.3 3.3 0 011.315-.278c1.286 0 2.45.768 2.966 1.955 3.64 8.328 5.485 17.202 5.485 26.373 0 36.378-29.594 65.972-65.971 65.972z"/><path fill="#0fa4aa" d="M66.809 130.959c-35.834 0-64.988-29.154-64.988-64.988S30.975.984 66.809.984c9.047 0 17.797 1.822 26.008 5.41a2.26 2.26 0 011.204 1.254 2.273 2.273 0 01-2.115 3.096c-.31 0-.612-.065-.897-.192-7.641-3.34-15.782-5.032-24.2-5.032-33.333 0-60.451 27.118-60.451 60.45 0 33.335 27.118 60.453 60.45 60.453 33.334 0 60.453-27.118 60.453-60.452 0-8.398-1.688-16.527-5.02-24.163a2.264 2.264 0 011.169-2.987 2.253 2.253 0 012.983 1.167c3.586 8.206 5.403 16.947 5.403 25.983 0 35.834-29.153 64.988-64.987 64.988z"/><path fill="#0fa4aa" d="M66.809 111.036c-24.85 0-45.064-20.217-45.064-45.066 0-24.847 20.215-45.064 45.064-45.064a44.77 44.77 0 0118.03 3.752c.799.35 1.41.987 1.726 1.793a3.22 3.22 0 01-.05 2.488 3.236 3.236 0 01-2.96 1.958c-.448 0-.89-.093-1.31-.278a38.326 38.326 0 00-15.436-3.211c-21.263 0-38.562 17.299-38.562 38.562 0 21.264 17.299 38.562 38.562 38.562 21.264 0 38.563-17.298 38.563-38.562 0-5.367-1.078-10.553-3.203-15.41a3.229 3.229 0 01-.048-2.49 3.237 3.237 0 011.722-1.792c.43-.184.87-.279 1.313-.279 1.283 0 2.448.769 2.969 1.956 2.487 5.689 3.748 11.749 3.748 18.015 0 24.849-20.216 45.066-45.064 45.066z"/><path fill="#0fa4aa" d="M66.809 110.052c-24.306 0-44.081-19.775-44.081-44.081 0-24.306 19.775-44.081 44.08-44.081 6.135 0 12.069 1.235 17.639 3.669.554.243.982.685 1.202 1.249.222.564.21 1.181-.034 1.736a2.252 2.252 0 01-2.06 1.369c-.314 0-.622-.067-.917-.195a39.285 39.285 0 00-15.83-3.294c-21.805 0-39.544 17.74-39.544 39.547 0 21.805 17.739 39.545 39.545 39.545 21.805 0 39.545-17.74 39.545-39.545 0-5.505-1.105-10.823-3.284-15.805a2.252 2.252 0 01-.034-1.736 2.259 2.259 0 011.204-1.251c.297-.129.605-.195.916-.195.893 0 1.705.535 2.068 1.365 2.433 5.563 3.666 11.491 3.666 17.622 0 24.306-19.775 44.081-44.081 44.081z"/><path fill="#0fa4aa" d="M66.809 90.13c-13.32 0-24.158-10.84-24.158-24.16s10.838-24.16 24.158-24.16c1.626 0 3.25.163 4.827.483a3.259 3.259 0 012.543 3.83c-.313 1.516-1.652 2.613-3.183 2.613-.215 0-.434-.022-.65-.066a17.486 17.486 0 00-3.537-.354c-9.735 0-17.654 7.919-17.654 17.654s7.919 17.655 17.654 17.655 17.655-7.92 17.655-17.655c0-1.19-.12-2.386-.357-3.558a3.23 3.23 0 01.474-2.442 3.214 3.214 0 012.695-1.457 3.27 3.27 0 013.199 2.595c.326 1.597.492 3.233.492 4.862 0 13.32-10.838 24.16-24.158 24.16z"/><path fill="#0fa4aa" d="M66.809 89.145c-12.78 0-23.175-10.396-23.175-23.174 0-12.78 10.396-23.177 23.175-23.177 1.56 0 3.12.156 4.63.463a2.276 2.276 0 011.776 2.673 2.282 2.282 0 01-2.22 1.822c-.15 0-.302-.016-.454-.046a18.468 18.468 0 00-3.732-.373c-10.277 0-18.638 8.36-18.638 18.638 0 10.278 8.36 18.637 18.638 18.637 10.277 0 18.639-8.36 18.639-18.637 0-1.256-.127-2.52-.377-3.753a2.255 2.255 0 01.33-1.706 2.247 2.247 0 011.875-1.015 2.28 2.28 0 012.235 1.808c.313 1.528.473 3.096.473 4.666 0 12.778-10.397 23.175-23.175 23.175z"/><path fill="#6e2b80" d="M64.51 68.267a3.226 3.226 0 01-.95-2.297c0-.869.337-1.683.95-2.296l28.045-28.047a.937.937 0 00.271-.659V19.976c0-.418.085-.835.251-1.239.172-.41.41-.766.707-1.061L110.498.959a3.216 3.216 0 011.067-.708 3.228 3.228 0 012.484.003 3.246 3.246 0 011.754 1.756c.167.403.251.822.251 1.242v12.543c0 .513.418.93.93.93h12.543a3.257 3.257 0 013 2.01 3.277 3.277 0 010 2.484 3.21 3.21 0 01-.706 1.059l-16.713 16.716a3.248 3.248 0 01-1.063.705 3.2 3.2 0 01-1.24.254H97.808a.924.924 0 00-.658.272L69.107 68.269a3.228 3.228 0 01-2.298.955c-.87 0-1.686-.341-2.3-.957zm43.458-55.58l-8.366 8.365a.907.907 0 00-.273.657v10.81c0 .514.417.93.931.93h10.812a.933.933 0 00.658-.273l8.362-8.361a.928.928 0 00.201-1.013.925.925 0 00-.858-.574h-6.63a3.257 3.257 0 01-3.253-3.252v-6.63a.926.926 0 00-.93-.93.895.895 0 00-.654.271z"/><path fill="#6e2b80" d="M65.206 67.572a2.243 2.243 0 01-.663-1.6c0-.607.235-1.177.662-1.605L93.25 36.322c.356-.352.56-.846.56-1.353V19.976c0-.29.06-.582.177-.863.12-.286.284-.535.491-.74l16.716-16.72a2.299 2.299 0 011.61-.667 2.262 2.262 0 012.09 1.398c.12.286.178.576.178.867v12.543c0 1.056.86 1.914 1.913 1.914h12.544a2.27 2.27 0 012.09 1.401 2.283 2.283 0 01-.49 2.472L114.412 38.3a2.272 2.272 0 01-.745.492 2.225 2.225 0 01-.865.178H97.81c-.51 0-.993.2-1.354.562l-28.043 28.04a2.25 2.25 0 01-1.604.667 2.242 2.242 0 01-1.603-.667zm42.062-55.577l-8.362 8.36c-.36.361-.56.842-.56 1.353V32.52c0 1.056.857 1.914 1.913 1.914h10.813c.504 0 .996-.205 1.353-.56l8.362-8.364c.55-.55.712-1.369.414-2.085a1.903 1.903 0 00-1.766-1.18h-6.632a2.27 2.27 0 01-2.269-2.268v-6.63c0-.778-.463-1.473-1.182-1.769a1.848 1.848 0 00-.73-.146c-.514 0-.993.2-1.354.564z"/></svg>