<svg xmlns="http://www.w3.org/2000/svg" width="133" height="133"><path fill="#0fa4aa" d="M66.5 133c-17.763 0-34.462-6.917-47.022-19.477C6.917 100.963 0 84.263 0 66.5s6.917-34.463 19.478-47.023C32.038 6.917 48.737 0 66.5 0c5.933 0 11.819.783 17.494 2.326a2.872 2.872 0 011.751 1.355 2.894 2.894 0 01-3.27 4.223A60.87 60.87 0 0066.5 5.781C33.02 5.781 5.781 33.02 5.781 66.5c0 33.48 27.239 60.719 60.719 60.719 33.48 0 60.719-27.239 60.719-60.719 0-7.867-1.482-15.519-4.404-22.745a2.873 2.873 0 01.02-2.213 2.875 2.875 0 011.578-1.551c.347-.14.71-.21 1.082-.21a2.88 2.88 0 012.68 1.806C131.377 49.506 133 57.888 133 66.5c0 17.763-6.917 34.463-19.478 47.023C100.962 126.083 84.263 133 66.5 133z"/><path fill="#6e2b80" d="M53.57 108.407a2.89 2.89 0 01-1.472-3.221l7.273-30.81H42.157c-.993 0-1.905-.5-2.438-1.337a2.872 2.872 0 01-.18-2.775l16.442-35.34a2.904 2.904 0 012.62-1.67h21.3a2.88 2.88 0 012.419 1.308 2.87 2.87 0 01.23 2.737L73.453 58.27h21.672a2.892 2.892 0 012.148 4.825L57.06 107.78a2.897 2.897 0 01-3.49.627zm9.453-39.811a2.87 2.87 0 012.27 1.1 2.87 2.87 0 01.542 2.454l-5.514 23.365 28.313-31.463H69.047a2.884 2.884 0 01-2.416-1.303 2.883 2.883 0 01-.236-2.736l9.102-20.978H60.445L46.69 68.595zM96.02 22.87c0-6.285 5.113-11.398 11.397-11.398s11.397 5.113 11.397 11.398c0 6.284-5.113 11.397-11.397 11.397S96.02 29.154 96.02 22.87zm5.78 0a5.622 5.622 0 005.617 5.616 5.622 5.622 0 005.617-5.616 5.623 5.623 0 00-5.617-5.617 5.623 5.623 0 00-5.617 5.617z"/></svg>