<svg xmlns="http://www.w3.org/2000/svg" width="177" height="155"><path fill="#fff" d="M88.373 139.97c-44.605 0-81.71-51.899-84.904-56.496C6.663 78.88 43.776 26.98 88.373 26.98c44.596 0 81.709 51.9 84.903 56.494-3.194 4.597-40.309 56.496-84.903 56.496z"/><path fill="#0fa4aa" d="M88.373 117.142c-18.562 0-33.665-15.103-33.665-33.665 0-18.564 15.103-33.668 33.665-33.668 18.564 0 33.667 15.104 33.667 33.668 0 18.562-15.103 33.665-33.667 33.665z"/><path fill="#fff" d="M88.373 94.313c-5.976 0-10.837-4.86-10.837-10.839 0-5.975 4.861-10.837 10.837-10.837 5.978 0 10.839 4.862 10.839 10.837 0 5.978-4.861 10.84-10.839 10.84z"/><path fill="#6e2b80" d="M85.629 151.96v-8.758l-.544-.031c-9.086-.477-18.425-2.94-27.763-7.321l-.508-.24-5.93 11.867a2.732 2.732 0 01-2.46 1.518c-.426 0-.839-.096-1.226-.29a2.75 2.75 0 01-1.225-3.683l5.949-11.905-.483-.266c-7.132-3.947-14.306-9.005-21.316-15.028l-.403-.347-13.594 13.596a2.729 2.729 0 01-1.941.803 2.717 2.717 0 01-1.942-.803 2.75 2.75 0 010-3.882l13.389-13.39-.435-.406C10.231 99.433.882 85.589.492 85.006a2.74 2.74 0 010-3.061c.39-.583 9.739-14.427 24.708-28.388l.435-.407L6.54 34.055a2.743 2.743 0 113.88-3.88l19.303 19.3.406-.347c6.999-6.018 14.163-11.07 21.291-15.014l.547-.303-11.532-17.296a2.715 2.715 0 01-.407-2.06 2.747 2.747 0 012.691-2.208c.92 0 1.772.458 2.286 1.227l11.411 17.12.253.494.605.039c9.353-4.396 18.708-6.867 27.811-7.344l.544-.031V3.58A2.747 2.747 0 0188.373.837a2.747 2.747 0 012.743 2.743v20.172l.544.03c9.103.478 18.458 2.949 27.811 7.345l.491.233.258-.48.12-.303 11.406-17.103a2.74 2.74 0 013.807-.763 2.724 2.724 0 011.17 1.745 2.737 2.737 0 01-.407 2.059L124.781 33.81l.547.303c7.131 3.947 14.295 8.999 21.297 15.014l.404.347 19.302-19.3a2.724 2.724 0 011.941-.804 2.743 2.743 0 011.939 4.684L151.113 53.15l.435.407c15.058 14.048 24.321 27.808 24.708 28.388a2.74 2.74 0 010 3.06c-.387.582-9.65 14.34-24.705 28.389l-.435.407 13.386 13.389a2.75 2.75 0 010 3.882 2.715 2.715 0 01-1.938.803 2.717 2.717 0 01-1.941-.803l-13.594-13.596-.404.347c-7.013 6.026-14.186 11.08-21.319 15.028l-.483.266 5.955 11.908a2.752 2.752 0 01-1.228 3.683 2.77 2.77 0 01-1.223.287 2.732 2.732 0 01-2.46-1.518l-5.933-11.866-.508.239c-9.341 4.38-18.683 6.844-27.766 7.32l-.544.032v8.758a2.747 2.747 0 01-2.743 2.743 2.747 2.747 0 01-2.744-2.743zM6.375 83.138l-.244.336.244.337c6.558 9.016 41.325 53.99 81.998 53.99 40.705 0 75.45-44.972 82.003-53.987l.244-.337-.244-.337c-6.559-9.015-41.334-53.988-82.003-53.988-40.731 0-75.451 44.97-81.998 53.986z"/><path fill="#6e2b80" d="M51.39 83.477c0-20.394 16.588-36.986 36.983-36.986 20.394 0 36.985 16.593 36.985 36.986 0 20.393-16.591 36.983-36.985 36.983-20.395 0-36.983-16.59-36.983-36.983zm5.486 0c0 17.366 14.13 31.496 31.497 31.496 17.366 0 31.496-14.13 31.496-31.496 0-17.368-14.13-31.497-31.496-31.497-17.367 0-31.497 14.13-31.497 31.497z"/><path fill="#6e2b80" d="M74.218 83.477c0-7.807 6.35-14.158 14.155-14.158 7.81 0 14.16 6.351 14.16 14.158 0 7.807-6.35 14.157-14.16 14.157-7.805 0-14.155-6.35-14.155-14.157zm5.487 0c0 4.78 3.888 8.671 8.668 8.671 4.782 0 8.673-3.89 8.673-8.67 0-4.78-3.891-8.672-8.673-8.672-4.78 0-8.668 3.891-8.668 8.671z"/></svg>