<svg xmlns="http://www.w3.org/2000/svg" width="156" height="156"><path fill="#fff" d="M107.547 152.113H4.382V5.801h103.165z"/><path fill="#0fa2a8" d="M47.54 120.449c0 6.245-5.063 11.308-11.309 11.308-6.246 0-11.308-5.063-11.308-11.308 0-6.246 5.062-11.308 11.308-11.308 6.246 0 11.308 5.062 11.308 11.308zm104.836 2.479h-18.044V18.458h18.044z"/><path fill="#6e2b80" d="M83.336 45.22H28.793a3.334 3.334 0 00-3.331 3.33 3.335 3.335 0 003.33 3.332h54.544a3.334 3.334 0 003.33-3.331 3.334 3.334 0 00-3.33-3.33zM43.669 32.048H68.46a3.335 3.335 0 003.33-3.331 3.335 3.335 0 00-3.33-3.33H43.669a3.334 3.334 0 00-3.331 3.33 3.334 3.334 0 003.33 3.33zm39.667 33.005H28.793a3.336 3.336 0 00-3.331 3.332 3.335 3.335 0 003.33 3.331h54.544a3.334 3.334 0 003.33-3.33 3.335 3.335 0 00-3.33-3.333zm0 19.835H28.793a3.336 3.336 0 00-3.331 3.331 3.334 3.334 0 003.33 3.33h54.544a3.334 3.334 0 003.33-3.33 3.335 3.335 0 00-3.33-3.331z"/><path fill="#6e2b80" d="M103.17.595c4.572 0 8.29 3.718 8.29 8.288V147.72c0 4.57-3.718 8.29-8.29 8.29H8.959c-4.57 0-8.29-3.72-8.29-8.29V8.883C.67 4.313 4.39.595 8.96.595zm1.628 8.288c0-.898-.73-1.626-1.628-1.626H8.959c-.898 0-1.627.728-1.627 1.626V147.72c0 .9.729 1.628 1.627 1.628h94.21c.9 0 1.629-.728 1.629-1.628zm47.957 6.587a3.335 3.335 0 013.332 3.33v104.129a3.336 3.336 0 01-3.332 3.33c-.898 0-1.627.728-1.627 1.627v9.917a3.336 3.336 0 01-3.331 3.332c-.898 0-1.627.728-1.627 1.626v9.918a3.337 3.337 0 01-3.332 3.332 3.337 3.337 0 01-3.331-3.332v-9.918c0-.898-.73-1.626-1.627-1.626a3.335 3.335 0 01-3.331-3.332v-9.917c0-.899-.73-1.627-1.628-1.627a3.335 3.335 0 01-3.331-3.33V18.8a3.334 3.334 0 013.33-3.33c.9 0 1.629-.73 1.629-1.628V3.925a3.334 3.334 0 013.33-3.331h9.918a3.335 3.335 0 013.33 3.331v9.917c0 .898.73 1.628 1.628 1.628zm-3.331 8.289a1.63 1.63 0 00-1.627-1.629h-9.917c-.898 0-1.627.73-1.627 1.629v94.21c0 .9.729 1.628 1.627 1.628h9.917c.898 0 1.627-.728 1.627-1.628z"/><path fill="#6e2b80" d="M36.231 104.722c8.671 0 15.728 7.055 15.728 15.727s-7.057 15.727-15.728 15.727c-8.672 0-15.728-7.055-15.728-15.727s7.056-15.727 15.728-15.727zm0 24.792c4.998 0 9.064-4.067 9.064-9.065 0-4.998-4.066-9.065-9.064-9.065s-9.065 4.067-9.065 9.065c0 4.998 4.067 9.065 9.065 9.065zm47.105-9.917H73.42a3.336 3.336 0 00-3.331 3.332 3.335 3.335 0 003.33 3.33h9.917a3.335 3.335 0 003.33-3.33 3.336 3.336 0 00-3.33-3.332z"/></svg>