<svg xmlns="http://www.w3.org/2000/svg" width="271" height="222"><path fill="#6e2b80" d="M230.151 7.617c0-4.2 3.418-7.617 7.62-7.617 4.2 0 7.616 3.417 7.616 7.617s-3.416 7.617-7.616 7.617c-4.201 0-7.62-3.416-7.62-7.617zm3.087 0a4.535 4.535 0 004.532 4.53 4.533 4.533 0 004.53-4.53 4.534 4.534 0 00-4.53-4.53 4.536 4.536 0 00-4.532 4.53zM254.93 155.86c0-4.201 3.417-7.619 7.617-7.619 4.199 0 7.615 3.418 7.615 7.619 0 4.199-3.416 7.615-7.615 7.615-4.2 0-7.617-3.416-7.617-7.615zm3.085 0a4.537 4.537 0 004.532 4.53 4.534 4.534 0 004.53-4.53 4.535 4.535 0 00-4.53-4.532 4.538 4.538 0 00-4.532 4.532zM82.084 11.026a1.545 1.545 0 01-1.543-1.543c0-.85.692-1.542 1.543-1.542h12.315c.852 0 1.545.692 1.545 1.542 0 .85-.693 1.543-1.545 1.543z"/><path fill="#6e2b80" d="M88.242 17.185a1.545 1.545 0 01-1.543-1.543V3.323c0-.85.692-1.542 1.543-1.542.85 0 1.542.692 1.542 1.542v12.32c0 .85-.692 1.542-1.542 1.542zM2.073 135.946c-.85 0-1.542-.693-1.542-1.543 0-.851.692-1.544 1.542-1.544H14.39c.853 0 1.545.693 1.545 1.544 0 .85-.692 1.543-1.545 1.543z"/><path fill="#6e2b80" d="M8.231 142.104a1.545 1.545 0 01-1.543-1.543v-12.32a1.543 1.543 0 013.086.001v12.319c0 .85-.692 1.543-1.543 1.543z"/><path fill="#0fa2a8" d="M45.91 182.509c-5.01 0-9.085-4.074-9.085-9.082V50.483c0-5.01 4.074-9.084 9.084-9.084h170.514c5.008 0 9.083 4.074 9.083 9.084v122.944c0 5.008-4.075 9.082-9.083 9.082z"/><path fill="#fff" d="M101.186 220.74c-.303 0-.47-.178-.52-.33-.03-.09-.05-.265.148-.41 3.557-2.653 8.903-12.748 9.085-25.99.003-.243.238-.44.522-.44h41.869c.21.114.512.346.524.44.186 13.581 5.136 23.537 8.425 25.99.195.145.175.32.144.41-.05.152-.217.33-.518.33z"/><path fill="#0fa2a8" d="M51.43 160.295V56.19c0-2.882 2.269-5.227 5.056-5.227h149.066c2.787 0 5.055 2.345 5.055 5.227v104.106z"/><path fill="#fff" d="M45.769 181.736c-5.01 0-9.084-4.074-9.084-9.082v-11.712h188.682v11.712c0 5.008-4.075 9.082-9.084 9.082z"/><path fill="#6e2b80" d="M45.665 184.183c-6.038 0-10.95-4.912-10.95-10.95V50.289c0-6.038 4.912-10.95 10.95-10.95h170.513c6.038 0 10.95 4.912 10.95 10.95v122.944c0 6.038-4.912 10.95-10.95 10.95zm-7.865-10.95c0 4.336 3.529 7.864 7.865 7.864h170.513c4.336 0 7.863-3.528 7.863-7.864V162.74H37.8zm7.865-130.809c-4.336 0-7.865 3.529-7.865 7.865v109.366h186.241V50.289c0-4.336-3.527-7.865-7.863-7.865zm41.736 179.343a1.545 1.545 0 01-1.543-1.543c0-.85.692-1.542 1.543-1.542h10.513l.074-.04c1.608-.902 9.631-6.37 9.631-25.617 0-.85.692-1.543 1.543-1.543.85 0 1.543.693 1.543 1.543 0 13.954-4.002 21.362-7.359 25.12l-.48.537h56.111l-.48-.538c-3.358-3.757-7.36-11.165-7.36-25.119 0-.85.693-1.543 1.543-1.543.851 0 1.543.693 1.543 1.543 0 19.491 8.013 24.76 9.618 25.62l10.6.037a1.543 1.543 0 01-.001 3.085z"/><path fill="#6e2b80" d="M125.481 173.461a1.545 1.545 0 010-3.087h10.88c.85 0 1.543.692 1.543 1.544 0 .851-.693 1.543-1.543 1.543z"/><path fill="#fff" d="M51.578 65.557v-9.354a5.062 5.062 0 015.056-5.055H205.7a5.061 5.061 0 015.056 5.055v9.354z"/><path fill="#015980" d="M58.383 59.039v-.001a2.207 2.207 0 014.414 0 2.206 2.206 0 01-2.207 2.207h-.001a2.205 2.205 0 01-2.206-2.206zm8.787 0v-.001c0-1.22.987-2.207 2.206-2.207h.002a2.206 2.206 0 110 4.414h-.002a2.205 2.205 0 01-2.206-2.206zm9.435 1.561l-.002-.002a2.205 2.205 0 010-3.12h.002a2.207 2.207 0 013.121 3.121h-.001a2.205 2.205 0 01-3.12 0z"/><path fill="#6e2b80" d="M51.009 162.74c-.85 0-1.543-.692-1.543-1.542V56.89a6.929 6.929 0 016.922-6.921h149.066c3.817 0 6.923 3.104 6.923 6.92v104.309c0 .85-.692 1.542-1.545 1.542zm1.544-3.085H209.29V68.108H52.553zm3.835-106.601a3.84 3.84 0 00-3.835 3.836v8.133H209.29V56.89a3.84 3.84 0 00-3.836-3.836z"/><path fill="#fff" d="M61.113 81.884h81.498v52.194H61.113z"/><path fill="#0fa2a8" d="M61.113 134.725h81.498v11.554H61.113zm32.353-12.732c-.403 0-.84-.311-.84-.814V94.584c0-.503.437-.814.84-.814.163 0 .323.047.464.14l20.365 13.296c.234.154.369.4.369.676a.798.798 0 01-.37.675L93.93 121.854a.84.84 0 01-.464.139z"/><path fill="#fff" d="M152.429 81.684h15.333v15.333h-15.333zm0 24.531h15.333v15.333h-15.333zm0 24.53h15.333v15.333h-15.333z"/><path fill="#6e2b80" d="M92.066 123.43a2.68 2.68 0 01-1.406-2.352V94.484a2.67 2.67 0 011.406-2.352c.4-.216.845-.33 1.295-.33.53 0 1.045.155 1.491.445l20.362 13.297a2.667 2.667 0 010 4.475L94.85 123.316a2.714 2.714 0 01-1.487.442c-.452 0-.9-.114-1.297-.328zm1.68-3.08l19.25-12.569-19.25-12.57z"/><path fill="#6e2b80" d="M60.59 135.746a1.546 1.546 0 01-1.543-1.545v-52.84c0-.851.692-1.543 1.543-1.543h82.142c.852 0 1.544.692 1.544 1.543v52.84c0 .852-.692 1.545-1.544 1.545zm1.542-3.087h79.058V82.904H62.132z"/><path fill="#6e2b80" d="M60.59 147.945a1.545 1.545 0 01-1.543-1.543v-12.201c0-.85.692-1.542 1.543-1.542h82.142c.852 0 1.544.692 1.544 1.542v12.201c0 .85-.692 1.543-1.544 1.543zm1.542-3.086h79.058v-9.114H62.132zm89.973-45.976c-.85 0-1.543-.692-1.543-1.542v-15.98c0-.851.693-1.543 1.543-1.543h15.98c.851 0 1.543.692 1.543 1.543v15.98c0 .85-.692 1.542-1.543 1.542zm1.542-3.085h12.895V82.903h-12.895zm-1.542 27.616c-.85 0-1.543-.692-1.543-1.543v-15.98c0-.851.693-1.544 1.543-1.544h15.98c.851 0 1.543.693 1.543 1.544v15.98c0 .851-.692 1.543-1.543 1.543zm1.542-3.087h12.895v-12.893h-12.895zm-1.542 27.618c-.85 0-1.543-.693-1.543-1.543v-15.98c0-.85.693-1.543 1.543-1.543h15.98c.851 0 1.543.693 1.543 1.543v15.98c0 .85-.692 1.543-1.543 1.543zm1.542-3.086h12.895v-12.895h-12.895zm23.458-61.956a1.545 1.545 0 01-1.543-1.543c0-.85.691-1.542 1.542-1.542h12.752c.852 0 1.544.692 1.544 1.542 0 .85-.692 1.543-1.543 1.543zm0 7.931a1.545 1.545 0 01-1.543-1.543c0-.85.691-1.544 1.542-1.544h20.374a1.544 1.544 0 01.001 3.087zm0 7.929a1.545 1.545 0 01-1.543-1.543c0-.85.691-1.542 1.542-1.542h20.374a1.544 1.544 0 01.001 3.085zm0 8.671a1.545 1.545 0 010-3.087h12.751a1.545 1.545 0 010 3.087zm0 7.929a1.544 1.544 0 01-1.543-1.542c0-.85.691-1.543 1.542-1.543h20.374a1.543 1.543 0 01.001 3.085zm0 7.931a1.545 1.545 0 010-3.087h20.374a1.545 1.545 0 010 3.087zm0 8.671a1.545 1.545 0 01-1.543-1.543c0-.85.691-1.542 1.542-1.542h12.752c.852 0 1.544.692 1.544 1.542 0 .85-.692 1.543-1.543 1.543zm0 7.93a1.545 1.545 0 010-3.087h20.374a1.545 1.545 0 010 3.087zm0 7.93a1.545 1.545 0 01-1.543-1.543c0-.85.691-1.542 1.542-1.542h20.374c.851 0 1.543.692 1.543 1.542 0 .85-.691 1.543-1.542 1.543z"/></svg>