<svg xmlns="http://www.w3.org/2000/svg" width="182" height="205"><path fill="#6e2b80" d="M29.854 184.698a6.451 6.451 0 016.444-6.445 6.451 6.451 0 016.444 6.445 6.451 6.451 0 01-6.444 6.444 6.451 6.451 0 01-6.444-6.444zm2.61 0a3.84 3.84 0 003.834 3.834 3.838 3.838 0 003.833-3.834 3.837 3.837 0 00-3.833-3.833 3.838 3.838 0 00-3.834 3.833zM53.77 34.958a6.451 6.451 0 016.444-6.445 6.451 6.451 0 016.444 6.445 6.451 6.451 0 01-6.444 6.444 6.451 6.451 0 01-6.444-6.444zm2.61 0a3.838 3.838 0 003.834 3.834 3.838 3.838 0 003.833-3.834 3.837 3.837 0 00-3.833-3.833 3.838 3.838 0 00-3.834 3.833zm74.83-3.191a6.451 6.451 0 016.443-6.445 6.451 6.451 0 016.444 6.445 6.451 6.451 0 01-6.444 6.444 6.451 6.451 0 01-6.444-6.444zm2.61 0a3.84 3.84 0 003.833 3.834 3.838 3.838 0 003.833-3.834 3.837 3.837 0 00-3.833-3.833 3.838 3.838 0 00-3.834 3.833zM1.305 103.999A1.307 1.307 0 010 102.694c0-.72.586-1.305 1.305-1.305h10.422c.719 0 1.305.585 1.305 1.305 0 .719-.586 1.305-1.305 1.305z"/><path fill="#6e2b80" d="M6.517 109.21c-.72 0-1.306-.586-1.306-1.305V97.482c0-.719.586-1.305 1.306-1.305.719 0 1.305.586 1.305 1.305v10.423c0 .719-.586 1.305-1.305 1.305zm163.756 1.305a1.307 1.307 0 01-1.305-1.305c0-.719.586-1.305 1.305-1.305h10.422c.72 0 1.305.586 1.305 1.305 0 .72-.586 1.305-1.305 1.305z"/><path fill="#6e2b80" d="M175.485 115.726c-.72 0-1.306-.586-1.306-1.305v-10.423a1.307 1.307 0 012.611 0v10.423c0 .72-.586 1.305-1.305 1.305zm-52.488 63.832c-.72 0-1.306-.586-1.306-1.305s.586-1.305 1.306-1.305h10.421c.72 0 1.306.586 1.306 1.305 0 .72-.586 1.305-1.306 1.305z"/><path fill="#6e2b80" d="M128.208 184.77a1.307 1.307 0 01-1.305-1.306v-10.423c0-.719.586-1.305 1.305-1.305.72 0 1.306.586 1.306 1.305v10.423c0 .72-.586 1.305-1.306 1.305zM37.163 8.21a1.306 1.306 0 110-2.61h10.421a1.306 1.306 0 010 2.61z"/><path fill="#6e2b80" d="M42.374 13.42c-.72 0-1.306-.586-1.306-1.305V1.693a1.306 1.306 0 012.611 0v10.422c0 .72-.585 1.305-1.305 1.305z"/><path fill="#fff" d="M83.668 200.57V47.915l7.957-7.958h4.892l7.372 7.373v153.24z"/><path fill="#0fa2a8" d="M56.325 120.898l-29.982 14.254 29.982 17.911h90.157v-32.165zm72.844-53.428l29.982 14.254-29.982 17.91H39.012V67.47z"/><path fill="#6e2b80" d="M82.262 204.51a3.588 3.588 0 01-3.584-3.584v-42.68c0-.968-.784-1.752-1.752-1.752H55.58a3.6 3.6 0 01-1.602-.378l-32.006-16.005a3.565 3.565 0 01-1.981-3.207c0-1.367.758-2.595 1.98-3.207l32.007-16.005a3.6 3.6 0 011.602-.378h21.346c.968 0 1.752-.784 1.752-1.75v-10.67c0-.968-.784-1.752-1.752-1.752H39.58a3.589 3.589 0 01-3.584-3.584v-32.01a3.588 3.588 0 013.584-3.585h37.346c.968 0 1.752-.785 1.752-1.752v-10.67c0-7.86 6.395-14.255 14.254-14.255 7.86 0 14.255 6.395 14.255 14.255v10.67c0 .967.784 1.752 1.75 1.752h21.347c.554 0 1.109.13 1.603.377l32.006 16.005a3.566 3.566 0 011.98 3.207 3.566 3.566 0 01-1.98 3.207l-32.006 16.005a3.605 3.605 0 01-1.603.378h-21.346c-.967 0-1.751.784-1.751 1.751v10.67a1.75 1.75 0 001.75 1.751h37.347a3.588 3.588 0 013.584 3.584v32.012a3.588 3.588 0 01-3.584 3.584h-37.346c-.967 0-1.751.784-1.751 1.751v42.681a3.588 3.588 0 01-3.584 3.584zm5.335-48.016c-.967 0-1.751.784-1.751 1.751v37.346a1.75 1.75 0 001.75 1.751h10.672a1.75 1.75 0 001.75-1.75v-37.347a1.75 1.75 0 00-1.75-1.75zm-30.755-32.01c-.272 0-.541.062-.783.183l-21.341 10.67a1.752 1.752 0 000 3.133l21.34 10.671c.243.121.512.185.784.185h84.108c.965 0 1.75-.785 1.75-1.75v-21.342a1.75 1.75 0 00-1.75-1.75zm30.755-21.342c-.967 0-1.751.784-1.751 1.751v10.67a1.75 1.75 0 001.75 1.751h10.672a1.75 1.75 0 001.75-1.75v-10.67a1.75 1.75 0 00-1.75-1.752zm-42.682-32.01a1.75 1.75 0 00-1.751 1.75v21.34c0 .967.785 1.751 1.75 1.751h84.109c.27 0 .54-.063.783-.185l21.34-10.67a1.75 1.75 0 000-3.133l-21.34-10.669a1.747 1.747 0 00-.783-.185zm40.93-19.59v10.67c0 .966.785 1.751 1.752 1.751h10.67a1.75 1.75 0 001.75-1.752v-10.67a7.093 7.093 0 00-7.085-7.086 7.094 7.094 0 00-7.086 7.086z"/><path fill="#6e2b80" d="M92.932 140.983a4.084 4.084 0 01-4.078-4.08 4.083 4.083 0 014.078-4.077 4.084 4.084 0 014.079 4.078 4.084 4.084 0 01-4.08 4.079zm0-53.353a4.084 4.084 0 01-4.078-4.078 4.083 4.083 0 014.078-4.078 4.083 4.083 0 014.079 4.078 4.084 4.084 0 01-4.08 4.079z"/></svg>