<svg xmlns="http://www.w3.org/2000/svg" width="225" height="216"><path fill="#6e2b80" d="M108.342 188.265c3.958 1.606 7.64 4.201 10.838 7.055 5.726 5.111 10.605 11.227 16.998 15.483 6.393 4.256 15.079 6.342 21.706 2.512 6.647-3.842 9.055-12.161 9.979-19.765.72-5.944.982-12.193 3.052-17.707zm-2.756-112.581H41.193v-3.966c-5.276 4.886-10.417 9.905-14.284 15.93-5.4 8.411-7.955 19.461-3.59 28.504 4.86 10.066 16.554 14.844 23.69 23.465 6.097 7.364 8.46 16.995 12.46 25.663 3.999 8.67 10.994 18.91 20.516 19.693 8.812.725 16.944-5.492 25.6-6.147z" opacity=".1"/><path fill="#0fa2a8" d="M40.178 34.811c2.616.53 5.224 1.331 7.84 2.342 5.268 2.034 10.243 3.453 15.963 2.374 12.355-2.33 21.28-14.73 34.558-13.534 7.943.715 14.482 6.744 22.409 7.6 9.588 1.034 19.62-5.658 28.463-1.988 9.347 3.878 26.333 8.462 32.17 16.43 7.89 10.77 9.302 21.878 13.19 34.49 2.928 9.501-3.417 20.746 1.934 29.226 4.032 6.388 13.608 8.922 15.826 16.075 2.095 6.76-3.62 13.31-5.136 20.217-1.484 6.748 1.119 13.598 2.879 20.277 1.759 6.68 2.463 14.442-2.052 19.833-4.502 5.373-12.801 6.457-19.828 4.971-7.028-1.485-13.358-3.388-20.091-5.808-6.734-2.419-14.544-3.644-20.966-.518-8.838 4.301-12.228 15.345-20.998 19.774-8.464 4.274-18.977.91-26.993-4.05-8.016-4.96-15.165-11.542-24.254-14.365-10.642-3.304-23.076-2.782-32.566-8.43-8.527-5.074-12.28-15.342-12.217-24.939.062-9.598 3.268-18.889 5.738-28.199 2.47-9.31 4.21-19.212 1.374-28.413-3.05-9.894-10.926-17.613-17.033-26.116-4.14-5.763-7.385-12.703-7.904-19.745-.271-3.664.297-7.643 2.464-10.769 1.98-2.858 5.186-4.81 8.54-5.902 5.705-1.858 11.215-1.94 16.69-.833z" opacity=".1"/><path fill="#6e2b80" d="M54.212 139.339l14.677 36.596 9.427-12.361-8.955-32.208z"/><path fill="#ecbdbd" d="M.287 50.054l1.443 6.85a.983.983 0 001.161.757l3.943-.83a.982.982 0 00.756-1.16l-1.444-6.852a.981.981 0 00-1.16-.756l-3.943.831a.982.982 0 00-.756 1.16z"/><path fill="#ecbdbd" d="M6.26 55.115l.116.045a.993.993 0 001.282-.564L8.9 51.403a.993.993 0 00-.564-1.282l-.115-.045a.994.994 0 00-1.282.564l-1.242 3.193a.993.993 0 00.564 1.282zm98.86 64.038l-1.277-4.901a.712.712 0 00-.865-.507l-2.82.735a.711.711 0 00-.508.864l1.278 4.901a.71.71 0 00.864.507l2.82-.735a.71.71 0 00.507-.864z"/><path fill="#ecbdbd" d="M100.63 115.7l-.084-.029a.718.718 0 00-.907.452l-.79 2.349a.719.719 0 00.452.907l.085.029a.718.718 0 00.907-.452l.789-2.349a.72.72 0 00-.451-.907z"/><path fill="#0fa2a8" d="M99.32 116.472l5.275-1.777c-6.653-24.736-22.944-38.681-34.319-46.01 0 0-5.84-2.494-10.94-.745l-17.414 5.97s-1.834 1.103-3.86 3.36l-.003-.002s-2.138 1.567-7.185-.824C17.111 68.837 7.858 55.197 7.858 55.197l-4.2.597-2.677.38a42.016 42.016 0 002.913 9.558c5.41 12.883 17.523 28.164 37.786 38.259l1.32 3.845 9.102 34.647 42.218-15.294-13.567-32.295-.265-.773c10.698 8.918 18.831 22.35 18.831 22.35z"/><path fill="#018787" d="M40.602 92.91l-.034.013c-.612 3.346 2.43 14.913 2.43 14.913l9.105 34.647 4.96-1.797z"/><path fill="#ecbdbd" d="M51.862 62.574l-2.908.997-.003-.008-2.939 1.008c1.513 4.411-4.342 9.5-4.342 9.5l.93 2.715 11.092.706.04.115 8.352-7.385-.93-2.715s-7.78-.522-9.292-4.933z"/><path fill="#e9a3a3" d="M42.992 76.583s5.934-5.929 3.971-10.574l3.094-1.307.003.007 2.375-1.003a4.67 4.67 0 01-.573-1.132l-2.908.997-.003-.008-2.938 1.008c1.512 4.411-4.343 9.5-4.343 9.5l.93 2.716.492.031z"/><path fill="#018787" d="M61.063 67.506c-1.095 3.918-3.902 7.18-7.867 8.54-3.994 1.37-8.248.492-11.526-1.974a18.22 18.22 0 00-2.14 1.707c4.033 3.375 9.476 4.66 14.573 2.913 5.137-1.761 8.662-6.171 9.748-11.364a13.94 13.94 0 00-2.789.178z"/><path fill="#ecbdbd" d="M38.243 57.265c.892 1.492 1.097 3.018.455 3.407-.642.384-1.886-.512-2.778-2.004-.893-1.494-1.097-3.016-.455-3.407.641-.386 1.883.513 2.778 2.004zm16.022-5.493c.212 1.725.986 3.055 1.73 2.97.745-.09 1.176-1.56.965-3.287-.21-1.729-.984-3.055-1.73-2.97-.741.088-1.173 1.56-.965 3.287z"/><path fill="#ecbdbd" d="M41.121 39.536c-11.41 3.912-5.929 14.406-5.929 14.406 5.84 14.781 15.351 13.077 15.351 13.077s8.56-4.49 4.102-19.746c0 0-2.113-11.649-13.524-7.737z"/><path d="M36.784 37.34c-1.336.191-3.23.739-3.679 2.309 0 0-5.038 5.807-.699 11.188 0 0 1.6 3.26 3.04 4.127 0 0 .03-.08.077-.228.057.133.112.271.167.401l.011.029.007.016a.633.633 0 00-.243.079c-.642.391-.438 1.913.455 3.407.892 1.492 2.136 2.388 2.778 2.004.005-.003.007-.009.012-.012 2.27 3.582 5.513 7.529 8.613 7.147 0 0 1.23-.27 2.68-.738.344-.016.54-.05.54-.05s.064-.036.171-.102C35.556 57.606 36.11 42.435 36.784 37.34z" opacity=".09"/><path d="M51.862 62.574l-2.908.997-.003-.008-2.939 1.008c.553 1.61.121 3.31-.647 4.821 3.336.27 5.79-.315 5.79-.315s2.068-.943 4.39-2.969c-1.62-.738-3.107-1.853-3.683-3.534z" opacity=".09"/><path fill="#805252" d="M35.201 44.575s6.05.783 9.47-1.342c0 0 2.862 1.807 6.311.76 0 0 2.11 1.113 1.784 3.877l2.464.615s1.667-3.907-1.549-7.73c0 0-.308-5.062-4.136-5.517 0 0-8.245-2.993-11.39 2 0 0-4.339-.076-5.05 2.412 0 0-5.038 5.807-.699 11.187 0 0 1.6 3.26 3.04 4.127 0 0 1.898-4.935-.245-10.39z"/><path fill="#805252" d="M53.742 48.113s-1.328 7.024-2.255 8.188c0 0-4.937-.418-8.67 2.973 0 0-3.824-.291-7.8-6.102l.684 1.994s6.045 13.329 11.622 12.64c0 0 5.36-1.174 6.916-2.88 0 0 3.465-4.831.721-16.51z"/><path fill="#ecbdbd" d="M50.187 62.286l-2.263.776a.827.827 0 01-1.045-.512l-.02-.056a.825.825 0 01.513-1.045l2.262-.776a.826.826 0 011.045.512l.02.056a.826.826 0 01-.512 1.045z"/><path fill="#0fa2a8" d="M187.816 33.984a4.396 4.396 0 11-8.791 0 4.396 4.396 0 018.791 0zm36.426 73.203a5.988 5.988 0 11-11.976 0 5.988 5.988 0 0111.976 0zM24.618 138.024a5.392 5.392 0 11-10.784 0 5.392 5.392 0 0110.784 0zm52.692 70.443a4.81 4.81 0 11-9.619 0 4.81 4.81 0 019.619 0z" opacity=".1"/><path fill="#ecbdbd" d="M129.695 48.325l3.807 2.114c.293.162.657.097.808-.145l1.136-1.813c.151-.242.036-.573-.257-.736l-3.807-2.113c-.292-.163-.657-.098-.808.144l-1.136 1.813c-.15.242-.036.573.257.736z"/><path fill="#ecbdbd" d="M134.09 47.993l.08-.032c.35-.138.474-.519.276-.845l-1.24-2.054a.843.843 0 00-.993-.342l-.08.031c-.35.14-.474.52-.276.846l1.24 2.054c.197.326.644.48.994.342zm47.533 106.147l2.979-5.032c.228-.387.155-.878-.166-1.09l-2.39-1.592c-.319-.212-.769-.07-.997.317l-2.979 5.032c-.229.387-.155.878.164 1.09l2.391 1.592c.319.213.769.07.998-.317zm12.715-107.946l2.188 1.162 1.503-2.832-2.188-1.162z"/><path d="M194.338 46.194l2.188 1.162 1.503-2.832-2.188-1.162z" opacity=".09"/><path fill="#805252" d="M192.682 46.8s-10.412 18.853-20.204 21.653l19.48 4.035 11.788-22.208z"/><path fill="#805252" d="M211.757 55.591s-8.771 21.057-5.604 30.736l-14.258-13.874 11.786-22.208z"/><path fill="#ecbdbd" d="M200.967 62.168l-2.688-1.427.004-.008-2.717-1.443c-2.615 4.926-10.92 4.702-10.92 4.702l-1.225 2.997 6.586 9.268-.068.129 11.402.26 1.753-2.885s-4.741-6.667-2.127-11.593z"/><path fill="#e9a3a3" d="M195.167 60.993l3.31 1.264-.005.01 2.101.803c.108-.305.238-.607.394-.902l-2.689-1.427.005-.008-2.718-1.443c-2.614 4.926-10.919 4.702-10.919 4.702l-1.225 2.997.422.594c1.822-.23 9.132-1.454 11.324-6.59z"/><path d="M200.967 62.168l-2.688-1.427.004-.008-2.716-1.442c-.685 1.288-1.76 2.222-2.973 2.902.856 2.793 2.37 3.98 2.37 3.98s2.095.673 5.222-.467c-.026-1.203.185-2.416.78-3.538z" opacity=".09"/><path fill="#ecbdbd" d="M195.435 49.123c-.533 1.686-1.492 2.925-2.146 2.764-.647-.165-.743-1.664-.21-3.35.533-1.69 1.491-2.924 2.145-2.764.65.162.742 1.662.211 3.35z"/><path d="M195.435 49.123c-.533 1.686-1.492 2.925-2.146 2.764-.647-.165-.743-1.664-.21-3.35.533-1.69 1.491-2.924 2.145-2.764.65.162.742 1.662.211 3.35z" opacity=".09"/><path fill="#ecbdbd" d="M209.96 38.495c-9.467-5.025-13.68 6.292-13.68 6.292-7.04 14.646-.25 19.954-.25 19.954s8.206 2.65 16.39-11.388c0 0 7.01-9.832-2.46-14.858z"/><path d="M207.186 37.46c-7.512-1.72-10.906 7.327-10.906 7.327-5.096 10.602-2.948 16.292-1.37 18.637 1.306-11.344 7.383-20.371 12.276-25.963z" opacity=".09"/><path fill="#ecbdbd" d="M209.177 56.416c-1.098 1.387-1.584 2.876-1.086 3.326.5.446 1.794-.316 2.893-1.702 1.1-1.388 1.586-2.874 1.089-3.325-.5-.447-1.795.316-2.896 1.7z"/><path fill="#865a95" d="M205.498 77.752c-.524-1.412-1.514-2.85-2.414-3.973-3.918 2.632-8.6 3.266-12.459 1.218-3.864-2.051-5.958-6.293-5.969-11.022-.466-.038-1.203.162-2.071.496l-.18-.577-.007-.02-.004.002c-.098.062-.197.116-.294.17-.029-.11-.054-.22-.083-.33l-.001.002c-.002 0-4.33 1.816-8.465 3.806-20.727 5.019-38.334-20.75-38.393-20.834l-.002-.003-1.159 3.705-.296.948c9.074 17.175 19.285 24.734 28.457 27.507a31.776 31.776 0 008.746 1.356l-.082.348-.09.382c-.001 0-.736.763-1.588 2.012-.055.08-.11.16-.166.245a17.107 17.107 0 00-1.138 1.989 13.315 13.315 0 00-1.054 3.007 9.904 9.904 0 00-.223 1.858 8.311 8.311 0 001.021 4.216s-1.56 1.652-4.077 4.532l-.149.17c-.291.334-.595.684-.91 1.049l-.179.208a280.95 280.95 0 00-5.653 6.776l-.282.35a272.956 272.956 0 00-4.267 5.436l-.377.494c-.664.873-1.336 1.766-2.011 2.679a235.355 235.355 0 00-4.627 6.466c-6.429 9.315-12.684 19.908-16.369 30.1h.001c.003.004 3.298 3.294 9.417 7.209a82.29 82.29 0 0023.54 10.284h.001c12.311-10.651 26.447-63.021 26.447-63.021l7.128-8.026c-1.596 18.82-12.819 44.083-14.778 48.198l4.526 2.402c25.884-46.654 23.481-65.305 20.533-71.814z"/><path fill="#6e2b80" d="M182.017 63.717c.68.058 2.135.216 2.64.258.01 4.728 2.104 8.971 5.968 11.021 3.86 2.049 8.54 1.415 12.46-1.218a19.54 19.54 0 011.494 2.145c-4.751 3.794-10.79 4.902-15.695 2.298-4.963-2.634-7.424-8.359-6.867-14.504z"/><path fill="#805252" d="M206.064 34.069s-9.715-7.823-12.275 7.293c0 0-2.507 8.13-7.602 8.428 0 0 7.885 3.534 12.552-6.304 0 0 2.76-4.155 6.098-3.652 0 0-4.19 20.91 14.848 20.048 0 0-8.914-2.63-3.078-10.268 0 0 7.936-13.085-10.543-15.545z"/><path fill="#ecbdbd" d="M181.34 148.228l-.038-.108c-.173-.474-.68-.655-1.125-.402l-2.804 1.588c-.445.253-.67.847-.496 1.32l.039.109c.174.474.68.655 1.125.402l2.804-1.588c.445-.253.669-.847.496-1.321z"/><path fill="#6e2b80" d="M164.368 194.675H73.402a7.335 7.335 0 01-7.335-7.335V32.007a7.335 7.335 0 017.335-7.335h90.966a7.334 7.334 0 017.335 7.335V187.34a7.334 7.334 0 01-7.335 7.335z"/><path fill="#fff" d="M163.762 188.753H74.01a2.783 2.783 0 01-2.783-2.783V33.378a2.783 2.783 0 012.783-2.783h89.752a2.783 2.783 0 012.783 2.783V185.97a2.783 2.783 0 01-2.783 2.783z"/><path fill="#ecbdbd" d="M122.385 98.554h-3.227v-.01h-3.26c0 5.911-7.43 9.745-7.43 9.745l-.116 3.5 10.772 5.403v.155l10.807-5.422-.108-3.654s-7.438-3.806-7.438-9.717z"/><path fill="#e9a3a3" d="M116.37 100.336l3.727-.46.001.011 2.366-.293a6.984 6.984 0 01-.079-1.04h-3.227v-.01h-3.26c0 5.911-7.43 9.744-7.43 9.744l-.117 3.5.691.346c1.593-1.12 7.828-5.9 7.328-11.798z"/><path fill="#ecbdbd" d="M142.522 126.28l-15.571-1.596-4.587 13.828c24.702-7.696 26.811 54.356 26.811 54.356l5.521.602c3.865-30.44-4.752-53.615-12.175-67.19z"/><path fill="#ecbdbd" d="M153.691 200.923l1.021-7.629c.078-.587-.255-1.145-.742-1.24l-3.635-.709c-.487-.095-.949.308-1.028.895l-1.019 7.63c-.079.586.255 1.144.741 1.24l3.636.708c.486.095.948-.308 1.026-.895z"/><path fill="#ecbdbd" d="M150.398 193.893l-.1-.111c-.443-.486-1.135-.447-1.539.087l-2.535 3.36c-.402.534-.37 1.37.072 1.857l.101.111c.442.486 1.135.447 1.537-.087l2.535-3.36c.404-.534.371-1.37-.07-1.857zM95.25 126.28l15.571-1.596 4.587 13.828c-24.703-7.696-26.812 54.356-26.812 54.356l-5.521.602c-3.865-30.44 4.752-53.615 12.175-67.19z"/><path fill="#ecbdbd" d="M84.08 200.923l-1.02-7.629c-.08-.587.254-1.145.741-1.24l3.635-.709c.487-.095.95.308 1.027.895l1.02 7.63c.078.586-.255 1.144-.74 1.24l-3.637.708c-.486.095-.948-.308-1.027-.895z"/><path fill="#ecbdbd" d="M87.373 193.893l.101-.111c.442-.486 1.134-.447 1.538.087l2.534 3.36c.403.534.371 1.37-.071 1.857l-.101.111c-.442.486-1.135.447-1.538-.087l-2.535-3.36c-.403-.534-.37-1.37.072-1.857z"/><path fill="#018787" d="M132.565 109.368a33.272 33.272 0 00-2.741-1.096c-2.422 4.22-6.305 6.958-10.687 6.958-4.375 0-8.247-2.733-10.67-6.941a33.27 33.27 0 00-2.75 1.106c2.866 5.645 7.801 9.38 13.42 9.38 5.626 0 10.564-3.75 13.427-9.407z"/><path fill="#0fa2a8" d="M140.99 114.701c-1.116-2.367-5.919-4.197-8.426-5.332-2.863 5.656-7.8 9.406-13.427 9.406-5.619 0-10.554-3.736-13.419-9.38-2.498 1.138-7.258 2.959-8.366 5.306l-11.988 28.885 13.313 4.378-2.7 40.793h46.39l-2.702-40.793 13.313-4.378z"/><path fill="#018787" d="M105.718 109.395c-2.497 1.138-7.258 2.959-8.365 5.307l-11.99 28.883 13.315 4.378-2.701 40.794h8.849c-.274-7.475-.785-16.174-1.616-33.622-1.382-29.014 6.61-40.087 6.61-40.087l.03-.116c-1.628-1.498-3.034-3.373-4.132-5.536zm33.947 38.569l-4.783-13.54 5.8 30.71z"/><path d="M115.897 98.544c0 1.413-.427 2.706-1.073 3.857 2.385 1.943 4.496 2.274 4.496 2.274s1.968-.303 4.25-2.072c-.71-1.197-1.185-2.556-1.185-4.049h-3.227v-.01z" opacity=".09"/><path fill="#ecbdbd" d="M110.17 88.038c.388 1.837.063 3.467-.73 3.64-.79.168-1.746-1.183-2.134-3.02-.39-1.839-.066-3.466.728-3.64.79-.17 1.744 1.183 2.136 3.02zm18.292 0c-.388 1.837-.062 3.467.729 3.64.792.168 1.747-1.183 2.136-3.02.39-1.839.065-3.466-.726-3.64-.79-.17-1.746 1.183-2.14 3.02z"/><path fill="#ecbdbd" d="M119.32 70.934c-13.028 0-11.103 12.642-11.103 12.642.79 17.146 11.102 18.736 11.102 18.736s10.32-1.59 11.107-18.736c0 0 1.922-12.642-11.107-12.642z"/><path d="M115.799 71.334c-7.391 1.697-7.776 8.717-7.661 11.29v.002c.008.195.02.365.03.505.003.017.005.027.005.04.01.12.022.222.029.289l.015.116c.023.504.068.97.108 1.448a.686.686 0 00-.292-.007c-.793.176-1.117 1.802-.727 3.642.389 1.836 1.346 3.187 2.136 3.02.029-.008.054-.03.084-.04.196.635.412 1.228.638 1.791.02.051.04.105.062.156.219.534.453 1.032.694 1.503l.097.185c.24.457.49.884.745 1.284l.105.16c.262.398.529.77.799 1.115l.077.094a13.77 13.77 0 002.685 2.575c.278.202.552.38.814.54.007.006.015.01.023.015-4.051-13.412-2.838-23.19-.466-29.724z" opacity=".09"/><path fill="#3a3a3a" d="M111.507 74.008s5.905 2.918 10.144 1.945c0 0 2.293 2.85 6.183 2.988 0 0 1.764 1.875.465 4.585l2.302 1.492s3.07-3.408 1.125-8.439c0 0 1.458-5.28-2.294-7.087 0 0-7.376-5.945-12.337-1.945 0 0-4.406-1.598-6.004.695 0 0-7.182 4.168-4.633 11.185 0 0 .492 3.891 1.659 5.28 0 0 3.668-4.377 3.39-10.699z"/><path fill="#0fa2a8" d="M150.787 23.086a1.801 1.801 0 00-.592-1.25 1.783 1.783 0 00-1.214-.478h-38.919a1.804 1.804 0 00-1.194.463.063.063 0 01-.019.015h.005a1.88 1.88 0 00-.44.592c-.008.018-.01.04-.022.058a1.908 1.908 0 00-.1.3c-.023.096-.028.198-.034.3l-.01-.004v25.643c0 .532.243 1.002.61 1.334l-.009.004c.015.014.031.024.047.035a.117.117 0 00.015.016l.003-.003a1.79 1.79 0 001.148.43h24.64l7.886 7.39v-7.39h6.393c.12 0 .238-.015.348-.035.082-.018.154-.044.23-.068.03-.012.064-.016.09-.03.097-.038.191-.09.282-.14l.002-.005c.518-.324.864-.889.864-1.538V23.082z"/><path fill="#fff" d="M132.769 35.948a3.248 3.248 0 01-3.246 3.248 3.247 3.247 0 113.246-3.248zm-11.479 0a3.248 3.248 0 01-3.248 3.248 3.247 3.247 0 010-6.492 3.246 3.246 0 013.247 3.244zm22.957 0a3.246 3.246 0 01-3.245 3.248 3.247 3.247 0 010-6.492 3.244 3.244 0 013.245 3.244z"/><path fill="#865a95" d="M129.514 6.176c-.007-.105-.013-.205-.035-.304a2.065 2.065 0 00-.102-.3c-.01-.016-.011-.037-.018-.056a1.876 1.876 0 00-.44-.59h.003c-.008-.01-.014-.013-.02-.018-.001-.003-.004-.004-.004-.004h-.003a1.79 1.79 0 00-1.186-.458h-38.92c-.47 0-.893.183-1.215.48a1.78 1.78 0 00-.59 1.25l-.01-.008v25.646c0 .647.346 1.212.862 1.535l.005.005c.089.053.184.1.279.142.028.013.06.018.09.03.077.023.15.049.23.067.113.022.229.033.349.033h6.394v7.393l7.887-7.393h24.639c.437 0 .834-.166 1.149-.427l.002.002c.005-.002.01-.01.015-.015a.417.417 0 00.047-.036l-.008-.004c.367-.331.609-.8.609-1.332V6.168z"/><path fill="#fff" d="M105.002 19.035a3.247 3.247 0 003.245 3.248 3.25 3.25 0 003.247-3.248 3.246 3.246 0 00-6.492 0zm11.479 0a3.247 3.247 0 003.246 3.248 3.244 3.244 0 100-6.491 3.244 3.244 0 00-3.246 3.242zm-22.959 0a3.25 3.25 0 003.247 3.248 3.245 3.245 0 100-6.491 3.246 3.246 0 00-3.247 3.242z"/><path fill="#865a95" d="M180.425 9.622a9.415 9.415 0 01-18.829 0 9.415 9.415 0 0118.829 0z"/><path fill="#fff" d="M168.362 14.648V4.597c0-.49.694-.746 1.125-.414l6.522 5.025c.29.223.29.606 0 .829l-6.522 5.026c-.43.33-1.125.075-1.125-.415z"/><path fill="#865a95" d="M77.905 173.02c0 8.738-7.084 15.821-15.82 15.821-8.74 0-15.823-7.083-15.823-15.82 0-8.739 7.083-15.822 15.822-15.822 8.737 0 15.821 7.083 15.821 15.821z"/><path fill="#fff" d="M66.688 176.385c-.314-.106-.65-.17-.955-.025-.211.1-.414.25-.723.452l-.958.62s-.901.838-3.518-3.16c-2.583-4.021-1.45-4.504-1.45-4.504.319-.205.638-.412.957-.62.31-.2.53-.322.708-.475.256-.218.335-.552.365-.88.076-.79-.123-1.637-.415-2.367-.364-.905-1.041-1.767-1.9-2.254a3.494 3.494 0 00-.511-.246c-3.327.318-4.103 4.17-4.103 4.17.888 3.932 3.16 7.77 3.74 8.71v.007l.07.106.069.105.006.004c.619.912 3.198 4.552 6.428 6.968 0 0 3.833.86 5.478-2.048a3.165 3.165 0 00-.016-.567c-.093-.982-.604-1.951-1.282-2.651-.547-.564-1.24-1.093-1.99-1.345z"/><path fill="#6e2b80" d="M225 163.06c0 9.446-7.658 17.104-17.104 17.104-9.448 0-17.105-7.658-17.105-17.105s7.657-17.105 17.105-17.105c9.446 0 17.104 7.658 17.104 17.105z"/><path fill="#fff" d="M211.843 155.006c-1.563 0-2.817 1.101-3.734 1.905l-.002.002a.321.321 0 01-.423 0l-.002-.002c-.916-.804-2.17-1.905-3.735-1.905-3.321 0-5.058 3.113-5.058 6.187 0 6.461 8.37 11.527 8.725 11.75a.615.615 0 00.282.077.622.622 0 00.28-.077c.356-.223 8.727-5.289 8.727-11.75 0-3.074-1.74-6.187-5.06-6.187z"/><path fill="#0fa2a8" d="M178.594 76.266c0 8.384-6.796 15.181-15.181 15.181-8.383 0-15.18-6.797-15.18-15.18 0-8.385 6.797-15.182 15.18-15.182 8.385 0 15.18 6.797 15.18 15.181z"/><path fill="#fff" d="M157.223 74.277h-2.814a.678.678 0 00-.678.678v8.774c0 .375.303.678.678.678h2.814a.677.677 0 00.678-.678v-8.774a.678.678 0 00-.678-.678zm15.601-.363a.806.806 0 00-.069-.074c-.404-.39-1.01-.513-1.544-.61a15.328 15.328 0 00-1.043-.155 35.24 35.24 0 00-2.078-.164c-.336-.018-.639-.209-.674-.57-.13-1.319.254-3.007.254-3.007.148-.544.245-1.108.231-1.674a3.295 3.295 0 00-.223-1.152 2.372 2.372 0 00-.439-.712 1.363 1.363 0 00-.694-.43 1.163 1.163 0 00-.47-.01.89.89 0 00-.404.185.686.686 0 00-.202.337 1.357 1.357 0 00-.05.328c-.012.32.112.631.08.952-.07.676-.268 1.332-.488 1.973-.109.313-.23.62-.364.923-.127.29-.262.574-.403.857-.657 1.314-1.53 2.59-2.649 3.558a3.85 3.85 0 01-1.756.862.64.64 0 00-.516.626v6.808c0 .133.108.24.241.24h10.24c.864-.002 1.721-.737 1.408-1.558-.183-.477.33-.618.535-.928.264-.395.298-.929.15-1.373-.104-.313.035-.58.286-.764a1.42 1.42 0 00.565-.932 1.73 1.73 0 00-.019-.617c-.03-.144-.11-.265-.188-.388-.047-.076-.08-.158-.064-.249a.504.504 0 01.136-.238c.063-.066.14-.115.2-.186.094-.113.153-.25.197-.392a2 2 0 00.08-.756c-.007-.073-.037-.153-.037-.225a1.116 1.116 0 00-.229-.485z"/><path fill="#0fa2a8" d="M156.87 82.596a.825.825 0 11-1.651 0 .825.825 0 011.65 0z"/><path fill="#018787" d="M89.442 98.422c0 9.608-7.788 17.396-17.396 17.396-9.606 0-17.395-7.789-17.395-17.396 0-9.606 7.79-17.395 17.395-17.395 9.608 0 17.396 7.788 17.396 17.395z"/><path fill="#fff" d="M80.99 104.935c-.075-.203-.172-.37-.354-.494-.47-.32-1.143-.459-1.669-.68-.813-.34-1.614-.709-2.364-1.174-.497-.305-1.062-.658-1.27-1.22a1.25 1.25 0 01-.08-.347l-.002-.003-.015-.18-.003-.025a5.042 5.042 0 01-.015-.267v-.014a2.825 2.825 0 01.004-.187 1.14 1.14 0 01.014-.112.393.393 0 01.041-.144 7.37 7.37 0 00.36-.537 9.154 9.154 0 001.041-2.098c.358.016.77-.58.942-1.386.17-.793.044-1.49-.276-1.64.045-.393.081-.803.101-1.238 0 0 .935-6.077-5.398-6.077-6.332 0-5.397 6.077-5.397 6.077.02.435.056.845.1 1.238-.319.15-.447.847-.276 1.64.173.806.585 1.402.942 1.386a9.154 9.154 0 001.041 2.098c.117.191.236.372.36.537.11.151.041.742.027.93l-.002.002h.001a1.307 1.307 0 01-.082.346v.001c-.209.562-.773.915-1.269 1.22-.75.465-1.552.834-2.365 1.174-.527.221-1.197.36-1.669.68-.182.124-.279.291-.354.494-.03.081-.228.594-.179.654a11.657 11.657 0 004.143 3.095l.072.03.058.023c.238.103.48.197.726.284.071.025.143.048.215.072.197.064.394.127.595.182.047.013.093.031.14.037a12.015 12.015 0 003.173.421c.701 0 1.386-.062 2.052-.173.382-.064.755-.15 1.123-.248.045-.006.091-.024.14-.037.2-.055.397-.118.592-.182.072-.024.145-.047.217-.072.246-.087.487-.18.725-.284l.058-.023.073-.03a11.663 11.663 0 004.142-3.095c.05-.06-.149-.573-.179-.654z"/></svg>