<svg xmlns="http://www.w3.org/2000/svg" width="114" height="205"><path fill="#0fa2a8" d="M3.38 204.363a3.295 3.295 0 01-3.29-3.292v-8.509c0-5.978 4.047-11.087 9.484-12.07 1.15-.83 4.026-3.1 7.64-7.34.04-.074.116-.199.225-.33 8.301-9.842 22.333-32.857 23.73-76.924l-2.545-.049c-4.18 0-7.61-3.428-7.61-7.643V86.14c0-4.213 3.43-7.64 7.643-7.64l2.596-.048.042-3.49-2.872-.052c-4.07 0-7.409-3.337-7.409-7.439v-2.469c0-4.102 3.338-7.44 7.44-7.44l3.216-.065c-2.484-4.052-3.83-9.005-3.83-14.212 0-9.377 9.184-31.82 13.78-39.475A6.212 6.212 0 0156.996.76h.097a6.214 6.214 0 015.38 3.052c4.593 7.655 13.778 30.096 13.778 39.473 0 5.21-1.348 10.16-3.832 14.212l3.154.064c4.164 0 7.502 3.34 7.502 7.441v2.47c0 4.101-3.338 7.438-7.439 7.438l-2.84.051.041 3.492 2.53.047c4.28 0 7.708 3.427 7.708 7.64v2.066c0 4.215-3.429 7.643-7.643 7.643l-2.51.05c1.394 44.068 15.427 67.081 23.726 76.921.06.068.15.201.217.316 3.617 4.25 6.5 6.523 7.651 7.355 5.437.984 9.484 6.093 9.484 12.071v8.51a3.295 3.295 0 01-3.29 3.291zm103.978-6.584l.063-5.236c0-3.058-2-5.56-4.459-5.56H11.128c-2.458 0-4.457 2.502-4.457 5.58l.062 5.216 9.278-.012 4.936-.099 36.1.047 36.062-.047 5.001.1zM47.86 95.923c-1.323 43.638-14.298 68.056-25.008 80.888l-3.192 3.555 1.844-.047 35.544.04 35.54-.04 1.846.047-3.154-3.509c-10.75-12.876-23.724-37.296-25.048-80.934l-9.193-.035zm9.192-17.464l8.986-.033.041-3.442-9.033-.033-9.033.033.041 3.44zm6.725-20.898c3.625-3.239 5.795-8.616 5.795-14.276 0-6.978-7.974-27.64-12.526-35.56-4.55 7.914-12.527 28.582-12.527 35.56 0 5.71 2.207 11.13 5.787 14.276z"/><path fill="#6e2b80" d="M38.755 85.08c-.585 0-1.062.474-1.062 1.06v2.066c0 .585.477 1.062 1.062 1.062h36.58c.586 0 1.063-.477 1.063-1.062V86.14c0-.586-.477-1.06-1.063-1.06zm-.203-20.937a.86.86 0 00-.858.859v2.47a.86.86 0 00.858.859h36.986a.86.86 0 00.86-.86v-2.47a.86.86 0 00-.86-.858z"/></svg>