<svg xmlns="http://www.w3.org/2000/svg" width="17" height="16"><path fill="#fff" d="M11.897 1.47c.787.035 1.215.167 1.5.278a2.5 2.5 0 01.929.604c.283.283.458.552.605.93.11.284.242.712.278 1.5.039.852.047 1.107.047 3.265 0 2.158-.008 2.414-.047 3.266-.036.788-.168 1.216-.278 1.5a2.494 2.494 0 01-.605.93 2.502 2.502 0 01-.93.604c-.284.111-.712.242-1.5.278-.851.04-1.107.047-3.265.047-2.158 0-2.414-.008-3.266-.047-.787-.036-1.215-.167-1.5-.278a2.502 2.502 0 01-.93-.605 2.494 2.494 0 01-.604-.929c-.11-.284-.242-.712-.278-1.5-.04-.852-.047-1.108-.047-3.266s.008-2.413.047-3.265c.036-.788.168-1.216.278-1.5a2.51 2.51 0 01.605-.93 2.5 2.5 0 01.929-.604c.285-.11.713-.243 1.5-.279.852-.039 1.108-.047 3.266-.047s2.413.008 3.266.047zM5.299.014c-.86.04-1.447.176-1.961.375a3.974 3.974 0 00-1.432.932c-.45.45-.725.9-.932 1.432-.2.514-.336 1.101-.376 1.962C.558 5.577.55 5.853.55 8.047c0 2.195.009 2.47.048 3.332.04.86.177 1.448.376 1.962.207.531.483.982.932 1.431.45.45.9.726 1.432.932.514.2 1.1.336 1.96.376.863.04 1.138.048 3.333.048 2.195 0 2.47-.009 3.332-.048.86-.04 1.447-.176 1.96-.376a3.961 3.961 0 001.433-.932c.449-.449.725-.9.932-1.43.199-.515.336-1.103.375-1.963.04-.862.049-1.137.049-3.332 0-2.194-.01-2.47-.05-3.33-.038-.862-.175-1.449-.374-1.963a3.974 3.974 0 00-.932-1.432c-.45-.449-.9-.725-1.432-.932-.514-.199-1.101-.336-1.961-.375-.862-.04-1.137-.049-3.332-.049s-2.47.01-3.332.05z"/><path fill="#fff" d="M8.63 3.898a4.15 4.15 0 11.001 8.3 4.15 4.15 0 010-8.3zm0 6.843a2.694 2.694 0 10.001-5.387 2.694 2.694 0 000 5.387zm5.284-7.007a.97.97 0 11-1.94 0 .97.97 0 011.94 0z"/></svg>