<svg xmlns="http://www.w3.org/2000/svg" viewBox="0 0 92.59 29.28"><defs><style>.cls-1{fill:#fff}</style></defs><g id="Layer_2" data-name="Layer 2"><g id="Layer_1-2" data-name="Layer 1"><path class="cls-1" d="M90.9 11.48c-2.7-4.18-7.89-7-13.83-7-.54 0-1.11 0-1.66.06a14.5 14.5 0 00-12.08 8.68h-7.21A15 15 0 0157 8.48a10.59 10.59 0 018.7-6.63c.66-.06.78.34.8.36a.57.57 0 01-.2.67l-.3.17a.24.24 0 00-.12.26 3.72 3.72 0 00.32 1.22 6.19 6.19 0 00.8-.32 2.25 2.25 0 001.3-2.89C67.85.2 66.38-.13 65.19 0 54.24 1.64 54.71 13.71 54.71 13.82l.08.73h9.62l.21-.49c2.57-6.19 7.91-7 10.89-7.31.51 0 1-.06 1.52-.06 5.41 0 10.11 1.93 12.52 5.7a10.2 10.2 0 011.43 6c-.31 3.4-2.68 6.11-6.21 6.15a4.13 4.13 0 01-4.13-4.09 3.23 3.23 0 011.6-2.83 3.72 3.72 0 011.59-.41h.1a3 3 0 012.17.8 2.5 2.5 0 01.79 1.75 2.11 2.11 0 01-.69 1.65 2 2 0 01-1.35.53 1.76 1.76 0 01-1.29-.45 1.29 1.29 0 01-.39-1 .91.91 0 01.76-1h.18a.61.61 0 01.52.59.65.65 0 01-.27.53s0 .32.18.36a1 1 0 00.64 0 1.32 1.32 0 00.73-1.57 1.62 1.62 0 00-.49-.85 2.42 2.42 0 00-3.1.08 2.21 2.21 0 00-.78 1.85 2.9 2.9 0 00.9 2.06 3.42 3.42 0 002.39 1H85a3.85 3.85 0 002.54-1.2 3.72 3.72 0 001.08-2.75 4.18 4.18 0 00-1.14-2.83 5.22 5.22 0 00-6.34-.51 4.83 4.83 0 00-2.23 4.25 5.69 5.69 0 005.85 5.62h.12c4.48-.06 7.56-3.3 7.75-8.08a12.19 12.19 0 00-1.68-6.57"/><path class="cls-1" d="M86.61 10.42s-1.55-1.37-2.33-.57c0 0-.82.71-1.7 1.36a9.06 9.06 0 01-5.46 2H77c-4.51 0-8.17-2.81-10.09-4.73-1.7-1.69-3.74-3-5.64-3a.94.94 0 00-.25 0A2.59 2.59 0 0058.49 8a2.26 2.26 0 002.33 2.24 2.2 2.2 0 001.69-.75 4.32 4.32 0 00.49-.84 2.77 2.77 0 00-1.1-.49.39.39 0 00-.35.22l-.12.16a.88.88 0 01-.59.23.81.81 0 01-.78-.77.79.79 0 01.84-.77h.16a5.79 5.79 0 01.58.08 4.52 4.52 0 01.87.35 11.28 11.28 0 011.21.81.87.87 0 01.14.12c.53.43 1.66 1.35 2.21 1.84a16.34 16.34 0 0010.87 4.25h.19a12.88 12.88 0 009.17-3.87h.06zM7.26 22.06c0 3.15-1 4.15-3 4.15a5.66 5.66 0 01-1.72-.3l.15 1v1.61c0 .25 0 .37-.29.43l-2.14.31A.26.26 0 010 29v-9.63A1.23 1.23 0 011 18a7.2 7.2 0 012.66-.45c3.11 0 3.58 1.57 3.58 4.48m-4.54-2.5v4.67a2.06 2.06 0 00.84.18c.79 0 .93-.28.93-2.5s-.16-2.51-.93-2.51a2.42 2.42 0 00-.84.19m12.46-1a4.78 4.78 0 01.84 3.19v.76c0 .22 0 .47-.43.47h-4.11a1.28 1.28 0 00.47 1.14 2.32 2.32 0 001.31.3 5.53 5.53 0 001.84-.37.24.24 0 01.35.19l.22 1.1a.32.32 0 01-.18.38 6.29 6.29 0 01-2.64.47c-2.73 0-4.23-1-4.23-4.23s1-4.38 3.72-4.38a3.53 3.53 0 012.84 1m-3.8 2.83h1.92c0-1.49-.1-2-1-2s-1 .55-1 2m11-3.41v1.32c0 .18 0 .35-.31.35a11.21 11.21 0 00-1.74.1v6A.23.23 0 0120 26h-2.24a.21.21 0 01-.23-.23v-6.95c0-.57.6-.77 1.39-.95a15.26 15.26 0 013-.27c.24 0 .35.08.35.35M29 18a.26.26 0 01.18.34L29 19.49a.23.23 0 01-.33.17 3.9 3.9 0 00-1.31-.27c-1.26 0-1.59.67-1.59 2.45s.33 2.46 1.59 2.46a4.57 4.57 0 001.31-.25.23.23 0 01.33.15l.22 1.12a.28.28 0 01-.18.36 5.83 5.83 0 01-2.45.45c-2.62 0-3.52-1.46-3.52-4.29s.9-4.26 3.52-4.26A5.38 5.38 0 0129 18m7.91.56a4.84 4.84 0 01.81 3.19v.76c0 .22 0 .47-.42.47h-4.11a1.31 1.31 0 00.49 1.14 2.26 2.26 0 001.31.3 5.53 5.53 0 001.84-.37.24.24 0 01.34.19l.21 1.1a.31.31 0 01-.17.38 6.24 6.24 0 01-2.65.47c-2.7 0-4.23-1-4.23-4.23s1-4.38 3.74-4.38a3.57 3.57 0 012.84 1m-3.82 2.83H35c0-1.49-.08-2-1-2s-1 .55-1 2m13.51.65c0 3.15-1 4.15-3 4.15a5.66 5.66 0 01-1.72-.3l.14 1v1.61c0 .25 0 .37-.3.43l-2.11.31a.26.26 0 01-.3-.29v-9.6a1.22 1.22 0 011-1.34 7.11 7.11 0 012.66-.45c3.1 0 3.57 1.57 3.57 4.48M42 19.56v4.64a2.22 2.22 0 00.86.18c.76 0 .92-.28.92-2.5s-.16-2.51-.92-2.51a2.56 2.56 0 00-.86.19m8.93-4.28v2.5h1.59a.24.24 0 01.26.23v1.46a.25.25 0 01-.26.23h-1.59v3.58c0 .55.1.92.79.92a5.79 5.79 0 00.82-.09c.21-.06.29 0 .31.17l.15 1.24c0 .22-.08.26-.23.33a4.76 4.76 0 01-1.71.28c-1.78 0-2.86-.69-2.86-2.65v-7.71c0-.24.08-.39.28-.43l2.16-.34c.16 0 .29.1.29.3m10.81 2.57v5.45c0 2.26-1.56 2.87-3.52 2.87s-3.55-.55-3.55-2.87v-5c0-.24.06-.38.32-.44l2.07-.31a.26.26 0 01.32.29v5.64c0 .68.29.94.84.94s.82-.3.82-.94v-5.17c0-.24.06-.38.31-.44l2.08-.31c.2 0 .31.08.31.29m13.45 2.19v5.7A.21.21 0 0175 26h-2.29a.22.22 0 01-.24-.23v-5.58c0-.59-.17-.84-.68-.84a4 4 0 00-1 .17v6.24a.21.21 0 01-.22.23h-2.25a.23.23 0 01-.25-.23v-5.57c0-.59-.18-.84-.69-.84a4.44 4.44 0 00-1 .17v6.24a.21.21 0 01-.23.23h-2.27a.21.21 0 01-.22-.23v-6.92c0-.57.53-.77 1.37-.95a14.08 14.08 0 012.78-.31 3.39 3.39 0 011.92.51 6.46 6.46 0 012.49-.51c1.76 0 3 .43 3 2.48"/></g></g></svg>