<svg xmlns="http://www.w3.org/2000/svg" width="93" height="30"><path fill="#6f2180" d="M91.31 12.208C88.608 8.02 83.418 5.23 77.483 5.23c-.548 0-1.114.02-1.663.059-5.58.53-9.87 3.833-12.083 8.689H56.53c.02-.905.138-2.97.843-4.777 1.39-3.578 4.78-6.233 8.734-6.625.666-.058.783.335.802.353.117.314-.04.532-.196.67-.018 0-.157.098-.293.176 0 0-.137.059-.117.256 0 .216.117.806.314 1.219 0 0 .43-.138.782-.315 1-.531 1.84-1.513 1.313-2.888C68.26.926 66.79.59 65.598.767 54.65 2.362 55.12 14.43 55.12 14.548l.078.727h9.616l.215-.491c2.565-6.192 7.91-7.017 10.886-7.312.509-.04 1.019-.06 1.528-.06 5.406 0 10.104 1.927 12.513 5.702 1.784 2.79 1.43 5.956 1.43 5.975-.312 3.4-2.682 6.114-6.207 6.153-2.31-.04-4.132-1.848-4.132-4.09 0-1.08.489-2.161 1.606-2.83a3.724 3.724 0 011.587-.412h.096c.843 0 1.548.216 2.175.806a2.51 2.51 0 01.782 1.749c.019.688-.255 1.278-.685 1.65-.353.336-.802.513-1.35.532-.491 0-.94-.118-1.293-.452-.256-.256-.412-.63-.39-.963.017-.413.253-.904.76-.944.04 0 .062-.02.1-.02.019 0 .04 0 .079.02a.61.61 0 01.527.59.676.676 0 01-.274.53s.02.315.178.354h.018c.177.059.39.059.647-.02.39-.157.88-.608.723-1.571 0 0-.078-.472-.488-.846-.47-.393-1.861-1.002-3.093.079-.55.49-.804 1.06-.786 1.847.02.787.334 1.534.904 2.064.644.63 1.505.963 2.388.963h.096c.922-.02 1.9-.53 2.548-1.2a3.747 3.747 0 001.075-2.75c-.018-1.121-.487-2.202-1.135-2.831-2.114-2.064-4.993-1.376-6.346-.511-1.388.904-2.27 2.398-2.231 4.246.078 3.36 2.683 5.563 5.855 5.622h.117c4.484-.06 7.559-3.302 7.755-8.08.04-.825-.021-3.99-1.683-6.565z"/><path fill="#14969c" d="M87.02 11.146s-1.547-1.376-2.33-.57c0 0-.823.707-1.703 1.357-.842.61-2.644 2.004-5.462 2.044h-.16c-4.502 0-8.164-2.81-10.083-4.738-1.705-1.69-3.74-3.047-5.642-3.047-.097 0-.195 0-.253.02-1.292 0-2.488 1.18-2.488 2.457 0 1.298 1.058 2.241 2.331 2.241.687 0 1.314-.295 1.686-.747 0 0 .35-.472.469-.786 0 0-.684-.492-1.096-.492 0 0-.215-.018-.354.218l-.117.157c-.117.137-.372.236-.587.236-.413 0-.766-.393-.766-.826 0-.413.353-.767.844-.767h.157c.174 0 .547.079.586.079.296.079.57.197.864.354 0 0 .764.432 1.212.805.06.04.1.079.138.119.527.432 1.663 1.356 2.211 1.847 2.135 1.907 5.857 4.247 10.87 4.247h.195c5.541-.08 8.556-3.283 9.165-3.873v-.02c.018-.02.04-.04.057-.04z"/><path fill="#6f2180" d="M4.697 26.931c-.686 0-1.566-.217-1.722-.295l.156 1.003v1.611c0 .256-.04.374-.295.433l-2.133.314c-.137.02-.295-.078-.295-.294V20.09c0-.943.51-1.159 1.019-1.336.334-.157 1.37-.453 2.662-.453 3.114 0 3.584 1.573 3.584 4.482 0 3.145-.997 4.148-2.976 4.148zM3.13 24.926c.118.06.449.177.84.177.784 0 .923-.275.923-2.496 0-2.28-.158-2.517-.922-2.517-.353 0-.723.138-.841.197zm13.259-2.456v.766c0 .215-.04.471-.431.471h-4.092c0 .59.174.904.469 1.14.353.236.823.295 1.31.295.784 0 1.566-.256 1.844-.374.156-.058.313 0 .352.197l.214 1.101c.039.236-.078.315-.175.373-.53.256-1.391.472-2.644.472-2.723 0-4.231-1.042-4.231-4.226 0-3.204 1.038-4.384 3.722-4.384 1.292 0 2.31.315 2.84.983.605.708.822 1.73.822 3.185zm-2.704-.355c0-1.494-.097-2.044-.958-2.044-.883 0-.98.55-.961 2.044zm9.007-3.44v1.317c0 .177-.019.354-.313.354-.762 0-1.449.04-1.74.098v6.035c0 .137-.1.235-.257.235H18.17c-.157 0-.235-.098-.235-.235V19.54c0-.57.608-.767 1.391-.944.666-.157 1.822-.275 3.014-.275.236 0 .353.08.353.354zm6.738.079c.136.059.214.137.175.334l-.214 1.12a.23.23 0 01-.334.177c-.235-.078-.724-.275-1.311-.275-1.253 0-1.587.668-1.587 2.457 0 1.809.334 2.457 1.587 2.457.548 0 1.076-.176 1.31-.255.118-.06.296-.02.335.157l.214 1.12c.039.197-.04.296-.175.354-.451.197-1.156.453-2.448.453-2.624 0-3.525-1.455-3.525-4.286 0-2.831.9-4.265 3.525-4.265 1.292 0 1.997.236 2.448.452zm8.695 3.716v.766c0 .215-.039.471-.413.471h-4.111c0 .59.196.904.488 1.14.335.236.804.295 1.313.295.784 0 1.548-.256 1.84-.374.139-.058.295 0 .334.197l.215 1.101c.06.236-.079.315-.176.373-.509.256-1.39.472-2.643.472-2.702 0-4.232-1.042-4.232-4.226 0-3.204 1.039-4.384 3.741-4.384 1.274 0 2.292.315 2.839.983.588.708.805 1.73.805 3.185zm-2.705-.355c0-1.494-.078-2.044-.957-2.044-.883 0-.961.55-.961 2.044zm8.538 4.816c-.684 0-1.584-.217-1.723-.295l.139 1.003v1.611c0 .256-.021.374-.295.433l-2.114.314c-.139.02-.295-.078-.295-.294V20.09c0-.943.49-1.159 1.017-1.336.314-.157 1.374-.453 2.666-.453 3.093 0 3.563 1.573 3.563 4.482 0 3.145-1 4.148-2.958 4.148zm-1.584-2.005c.136.06.47.177.861.177.763 0 .919-.275.919-2.496 0-2.28-.156-2.517-.919-2.517-.352 0-.725.138-.861.197zm8.966-8.924v2.496h1.588c.138 0 .256.098.256.235v1.455c0 .138-.118.236-.256.236H51.34v3.578c0 .55.099.924.785.924.37 0 .705-.079.822-.099.214-.059.292.02.314.177l.156 1.24c.019.215-.078.254-.234.333-.256.118-.922.275-1.705.275-1.783 0-2.858-.688-2.858-2.654v-7.705c0-.236.078-.393.274-.432l2.153-.354c.156-.02.293.098.293.294zm10.812 2.595v5.445c0 2.26-1.569 2.87-3.526 2.87-1.919 0-3.545-.551-3.545-2.87v-4.993c0-.236.06-.373.313-.432l2.077-.315c.197-.02.314.079.314.295v5.622c0 .688.292.943.841.943.568 0 .822-.295.822-.943v-5.17c0-.236.06-.373.313-.432l2.075-.315c.198-.02.316.079.316.295zm13.451 2.181v5.701c0 .137-.078.235-.214.235h-2.27c-.159 0-.237-.098-.237-.235v-5.563c0-.59-.177-.846-.686-.846-.45 0-.862.138-.999.177v6.232c0 .137-.079.235-.215.235H68.73c-.157 0-.253-.098-.253-.235v-5.563c0-.59-.178-.846-.687-.846-.43 0-.882.138-1.018.177v6.232c0 .137-.078.235-.234.235h-2.252c-.137 0-.216-.098-.216-.235v-6.92c0-.57.528-.766 1.372-.943a13.358 13.358 0 012.78-.315c.842 0 1.526.236 1.917.511.393-.196 1.45-.51 2.488-.51 1.762 0 2.976.432 2.976 2.476z"/></svg>